<svg width="646" height="483" viewBox="0 0 646 483" fill="none" xmlns="http://www.w3.org/2000/svg">
<g clip-path="url(#clip0_28_377)">
<path d="M645.191 30.0323H0.808589C0.589216 30.0323 0.378825 29.9444 0.223705 29.7879C0.0685844 29.6314 -0.0185547 29.4192 -0.0185547 29.1979C-0.0185547 28.9766 0.0685844 28.7644 0.223705 28.6079C0.378825 28.4514 0.589216 28.3635 0.808589 28.3635H645.191C645.41 28.3635 645.62 28.4514 645.776 28.6079C645.931 28.7644 646.018 28.9766 646.018 29.1979C646.018 29.4192 645.931 29.6314 645.776 29.7879C645.62 29.9444 645.41 30.0323 645.191 30.0323Z" fill="#CACACA"/>
<path d="M19.0171 18.3533C23.9319 18.3533 27.9161 14.2448 27.9161 9.17664C27.9161 4.10852 23.9319 0 19.0171 0C14.1024 0 10.1182 4.10852 10.1182 9.17664C10.1182 14.2448 14.1024 18.3533 19.0171 18.3533Z" fill="#3F3D56"/>
<path d="M49.7574 18.3533C54.6722 18.3533 58.6563 14.2448 58.6563 9.17664C58.6563 4.10852 54.6722 0 49.7574 0C44.8427 0 40.8585 4.10852 40.8585 9.17664C40.8585 14.2448 44.8427 18.3533 49.7574 18.3533Z" fill="#3F3D56"/>
<path d="M80.4986 18.3533C85.4133 18.3533 89.3975 14.2448 89.3975 9.17664C89.3975 4.10852 85.4133 0 80.4986 0C75.5838 0 71.5997 4.10852 71.5997 9.17664C71.5997 14.2448 75.5838 18.3533 80.4986 18.3533Z" fill="#3F3D56"/>
<path d="M626.769 5.61235H604.93C604.492 5.61235 604.071 5.43653 603.761 5.12357C603.451 4.81062 603.276 4.38616 603.276 3.94358C603.276 3.50099 603.451 3.07652 603.761 2.76357C604.071 2.45061 604.492 2.2748 604.93 2.2748H626.769C627.208 2.2748 627.629 2.45061 627.939 2.76357C628.249 3.07652 628.424 3.50099 628.424 3.94358C628.424 4.38616 628.249 4.81062 627.939 5.12357C627.629 5.43653 627.208 5.61235 626.769 5.61235Z" fill="#3F3D56"/>
<path d="M626.769 11.8698H604.93C604.492 11.8698 604.071 11.694 603.761 11.3811C603.451 11.0681 603.276 10.6437 603.276 10.2011C603.276 9.75848 603.451 9.33402 603.761 9.02106C604.071 8.7081 604.492 8.53229 604.93 8.53229H626.769C627.208 8.53229 627.629 8.7081 627.939 9.02106C628.249 9.33402 628.424 9.75848 628.424 10.2011C628.424 10.6437 628.249 11.0681 627.939 11.3811C627.629 11.694 627.208 11.8698 626.769 11.8698Z" fill="#3F3D56"/>
<path d="M626.769 18.1265H604.93C604.492 18.1265 604.071 17.9507 603.761 17.6378C603.451 17.3248 603.276 16.9003 603.276 16.4578C603.276 16.0152 603.451 15.5907 603.761 15.2778C604.071 14.9648 604.492 14.789 604.93 14.789H626.769C627.208 14.789 627.629 14.9648 627.939 15.2778C628.249 15.5907 628.424 16.0152 628.424 16.4578C628.424 16.9003 628.249 17.3248 627.939 17.6378C627.629 17.9507 627.208 18.1265 626.769 18.1265Z" fill="#3F3D56"/>
<path d="M348.834 162.76C350.76 163.881 352.362 165.491 353.482 167.43C354.602 169.368 355.201 171.568 355.219 173.811C355.237 176.055 354.673 178.264 353.585 180.221C352.496 182.177 350.92 183.813 349.012 184.966C347.104 186.119 344.931 186.75 342.707 186.795C340.484 186.84 338.287 186.299 336.334 185.225C334.382 184.151 332.741 182.581 331.575 180.671C330.409 178.76 329.757 176.576 329.685 174.333L329.679 173.916L329.685 173.498C329.757 171.273 330.398 169.105 331.548 167.205C332.697 165.305 334.315 163.738 336.244 162.656C338.172 161.575 340.346 161.016 342.552 161.034C344.759 161.052 346.923 161.647 348.834 162.76ZM346.535 176.857C346.416 176.738 346.274 176.645 346.118 176.582C345.963 176.519 345.797 176.487 345.629 176.489C345.461 176.49 345.296 176.525 345.141 176.592C344.987 176.658 344.847 176.754 344.73 176.875C344.433 177.181 344.078 177.424 343.686 177.591C343.294 177.757 342.874 177.842 342.449 177.842C342.024 177.842 341.603 177.757 341.212 177.591C340.82 177.424 340.465 177.181 340.168 176.875C339.931 176.631 339.608 176.492 339.269 176.489C338.93 176.485 338.604 176.618 338.363 176.857C338.121 177.096 337.983 177.422 337.98 177.764C337.976 178.105 338.108 178.434 338.345 178.678C338.88 179.229 339.518 179.666 340.223 179.965C340.928 180.264 341.685 180.418 342.449 180.418C343.213 180.418 343.97 180.264 344.675 179.965C345.38 179.666 346.018 179.229 346.553 178.678C346.671 178.557 346.763 178.415 346.826 178.258C346.888 178.101 346.92 177.933 346.918 177.764C346.917 177.595 346.882 177.428 346.816 177.272C346.751 177.116 346.655 176.975 346.535 176.857ZM338.631 170.047L338.469 170.056C338.145 170.093 337.846 170.254 337.636 170.506C337.426 170.759 337.319 171.082 337.338 171.411C337.357 171.74 337.501 172.05 337.739 172.275C337.977 172.501 338.292 172.625 338.619 172.624L338.781 172.615C339.105 172.578 339.403 172.417 339.614 172.165C339.824 171.912 339.931 171.589 339.912 171.26C339.893 170.931 339.749 170.621 339.511 170.396C339.273 170.17 338.958 170.046 338.631 170.047ZM346.293 170.047L346.131 170.056C345.806 170.093 345.508 170.254 345.298 170.506C345.087 170.759 344.981 171.082 345 171.411C345.019 171.74 345.163 172.05 345.401 172.275C345.639 172.501 345.954 172.625 346.281 172.624L346.442 172.615C346.767 172.578 347.065 172.417 347.276 172.165C347.486 171.912 347.593 171.589 347.574 171.26C347.554 170.931 347.411 170.621 347.173 170.396C346.934 170.17 346.62 170.046 346.293 170.047Z" fill="#1577BE"/>
<path d="M484.554 417.931L484.335 417.919H473.581C473.255 417.921 472.94 417.802 472.695 417.585C472.449 417.367 472.292 417.068 472.251 416.741L472.24 416.583V403.788C472.242 403.552 472.306 403.321 472.424 403.117C472.542 402.914 472.71 402.745 472.913 402.628C473.485 402.302 473.967 401.837 474.316 401.277C474.666 400.716 474.873 400.077 474.918 399.416L474.929 399.146V397.801C474.932 397.27 475.038 396.744 475.242 396.255C475.446 395.765 475.744 395.321 476.118 394.948C476.493 394.574 476.936 394.278 477.424 394.078C477.911 393.877 478.434 393.775 478.96 393.778C479.983 393.774 480.97 394.163 481.718 394.867C482.466 395.572 482.92 396.538 482.985 397.568L482.991 397.8V403.168H485.68C486.664 403.164 487.615 403.524 488.353 404.179C489.091 404.835 489.566 405.741 489.686 406.726L489.707 406.957L489.712 407.191L489.686 407.455L488.333 414.205C487.828 416.369 486.336 417.932 484.6 417.932L484.554 417.931ZM468.453 417.919C467.779 417.924 467.128 417.672 466.631 417.213C466.134 416.753 465.828 416.12 465.774 415.443L465.763 415.243V405.85C465.767 405.17 466.025 404.516 466.487 404.019C466.948 403.522 467.579 403.219 468.252 403.172L468.453 403.167H469.8C470.127 403.166 470.444 403.286 470.689 403.505C470.934 403.723 471.092 404.025 471.131 404.353L471.143 404.508V416.579C471.141 416.91 471.018 417.227 470.8 417.473C470.581 417.719 470.28 417.875 469.955 417.912L469.8 417.917L468.453 417.919Z" fill="#1577BE"/>
<path d="M434.294 412.387C397.842 412.387 358.23 406.922 318.885 396.415C270.229 383.422 225.617 363.809 189.872 339.696L190.93 338.099C226.507 362.094 270.918 381.618 319.373 394.557C363.161 406.252 407.276 411.67 446.936 410.24L447.004 412.16C442.815 412.312 438.579 412.388 434.294 412.387Z" fill="#090814"/>
<path d="M428.835 162.815C416.997 158.927 404.821 155.306 392.643 152.054C322.569 133.341 253.686 126.697 193.437 132.844L193.245 130.932C253.719 124.765 322.838 131.421 393.131 150.197C405.34 153.46 417.554 157.089 429.426 160.989L428.835 162.815Z" fill="#090814"/>
<path d="M107.733 312.316C78.5265 283.312 66.1904 253.054 72.9976 227.116C81.73 193.83 120.54 170.816 179.47 163.974L179.688 165.883C121.577 172.63 83.3632 195.127 74.8427 227.608C68.2183 252.851 80.3748 282.447 109.073 310.947L107.733 312.316Z" fill="#090814"/>
<path d="M503.839 400.466L503.229 398.646C535.829 387.527 556.22 369.615 562.196 346.845C569.792 317.9 553.289 284.31 515.727 252.265C477.973 220.057 423.531 193.331 362.426 177.014L362.911 175.156C424.28 191.545 478.988 218.408 516.953 250.798C555.108 283.35 571.829 317.634 564.034 347.337C557.891 370.76 537.074 389.131 503.839 400.466Z" fill="#090814"/>
<path d="M179.651 405.856C108.026 373.811 52.8324 332.237 24.2396 288.791L25.8268 287.73C54.2215 330.877 109.124 372.203 180.422 404.103L179.651 405.856Z" fill="#090814"/>
<path d="M464.168 322.306C468.376 322.306 471.788 318.864 471.788 314.619C471.788 310.374 468.376 306.933 464.168 306.933C459.96 306.933 456.548 310.374 456.548 314.619C456.548 318.864 459.96 322.306 464.168 322.306Z" fill="#E6E6E6"/>
<path d="M322.389 109.108C326.597 109.108 330.009 105.666 330.009 101.421C330.009 97.1759 326.597 93.7345 322.389 93.7345C318.18 93.7345 314.769 97.1759 314.769 101.421C314.769 105.666 318.18 109.108 322.389 109.108Z" fill="#E6E6E6"/>
<path d="M162.719 396.259C162.719 398.217 162.783 400.174 162.919 402.113C163.063 404.432 163.31 406.735 163.647 409.022C164.773 416.721 166.927 424.231 170.048 431.349L170.527 432.409L170.769 432.94C170.85 433.117 170.937 433.294 171.017 433.464C171.128 433.697 171.233 433.923 171.34 434.148C171.476 434.429 171.612 434.711 171.755 434.993C171.771 435.025 171.786 435.065 171.811 435.105C171.93 435.35 172.042 435.58 172.17 435.822C172.194 435.875 172.221 435.926 172.251 435.976C172.386 436.25 172.53 436.531 172.673 436.805C172.835 437.095 172.985 437.393 173.144 437.683C173.527 438.4 173.926 439.108 174.333 439.817C174.453 440.026 174.576 440.235 174.7 440.445C174.812 440.638 174.924 440.831 175.043 441.024C175.124 441.153 175.205 441.29 175.286 441.419C175.414 441.637 175.541 441.846 175.677 442.064C175.972 442.538 176.276 443.014 176.571 443.488H176.58C176.715 443.706 176.859 443.923 177.002 444.133V444.141C177.425 444.785 177.864 445.429 178.303 446.065C178.305 446.065 178.308 446.066 178.309 446.067C178.311 446.069 178.311 446.071 178.311 446.073C178.662 446.589 179.029 447.088 179.389 447.587V447.595C179.632 447.909 179.86 448.231 180.1 448.545C180.292 448.803 180.491 449.069 180.69 449.327C180.73 449.383 180.778 449.431 180.818 449.49V449.498C180.874 449.571 180.93 449.635 180.985 449.708C181.832 450.803 182.704 451.874 183.603 452.92L183.747 453.089C183.795 453.146 183.851 453.202 183.899 453.266C183.98 453.355 184.051 453.443 184.131 453.532C184.21 453.621 184.283 453.709 184.362 453.798C189.05 459.125 194.365 463.854 200.19 467.881C200.965 468.42 201.755 468.941 202.545 469.451C202.744 469.58 202.944 469.708 203.143 469.829C203.199 469.869 203.263 469.911 203.318 469.95C203.43 470.014 203.534 470.079 203.642 470.151C203.749 470.224 203.85 470.28 203.961 470.345C204.384 470.611 204.815 470.868 205.246 471.126C205.349 471.191 205.462 471.255 205.569 471.319C205.677 471.384 205.785 471.44 205.893 471.505C205.893 471.513 205.893 471.513 205.901 471.513H205.909V471.521H205.917C206.452 471.835 206.995 472.14 207.545 472.438C207.841 472.602 208.144 472.765 208.448 472.921C209.134 473.3 209.829 473.662 210.523 474.009C210.771 474.129 211.026 474.253 211.274 474.379C211.481 474.475 211.688 474.58 211.896 474.676C211.96 474.708 212.016 474.733 212.072 474.765C212.247 474.847 212.415 474.929 212.591 475.01C212.782 475.099 212.974 475.187 213.157 475.276C213.373 475.372 213.58 475.469 213.796 475.557C214.594 475.92 215.4 476.266 216.206 476.596C219.095 477.79 222.047 478.823 225.05 479.688C225.186 479.728 225.33 479.769 225.473 479.808C226.758 480.171 228.051 480.501 229.354 480.799C231.628 481.33 233.924 481.765 236.242 482.104H236.258L237.088 482.224C237.113 482.224 237.136 482.232 237.169 482.232C237.169 482.241 237.169 482.241 237.177 482.232L238.095 482.353C238.116 482.359 238.137 482.362 238.159 482.361C238.446 482.401 238.742 482.434 239.029 482.466L239.963 482.562L240.681 482.635C240.701 482.642 240.723 482.645 240.745 482.643C240.96 482.659 241.175 482.683 241.391 482.699H241.424L241.982 482.747C244.209 482.924 246.444 483.005 248.711 483.005C251.162 483.005 253.596 482.909 255.999 482.699H256.023L257.563 482.554C257.699 482.538 257.827 482.529 257.963 482.514C257.987 482.514 258.018 482.506 258.043 482.506C258.083 482.498 258.124 482.498 258.171 482.489C258.193 482.49 258.214 482.487 258.235 482.481C258.411 482.465 258.586 482.441 258.77 482.425L259.368 482.352C259.568 482.328 259.767 482.296 259.966 482.271C260.014 482.263 260.054 482.263 260.102 482.255C260.246 482.238 260.389 482.215 260.533 482.19L260.741 482.166C260.885 482.141 261.021 482.126 261.164 482.101H261.172C265.552 481.466 269.875 480.484 274.102 479.165C274.325 479.092 274.549 479.028 274.772 478.955C274.78 478.955 274.789 478.947 274.797 478.947C274.861 478.923 274.933 478.907 274.996 478.883C275.595 478.689 276.186 478.488 276.775 478.279C277.589 478.005 278.392 477.708 279.201 477.402C279.417 477.313 279.632 477.233 279.848 477.144C280.287 476.975 280.718 476.798 281.149 476.62C281.883 476.322 282.617 476.008 283.344 475.686C284.022 475.38 284.693 475.075 285.365 474.752C285.381 474.744 285.405 474.744 285.421 474.728C285.573 474.655 285.724 474.583 285.868 474.51H285.876C289.552 472.73 293.097 470.688 296.484 468.399C297.57 467.666 298.639 466.909 299.693 466.128C300.538 465.492 301.369 464.847 302.199 464.188C306.295 460.902 310.085 457.247 313.525 453.27V453.261C313.773 452.987 314.004 452.706 314.243 452.424C314.283 452.384 314.315 452.342 314.347 452.311C314.499 452.126 314.642 451.949 314.794 451.772V451.764C314.994 451.531 315.193 451.289 315.384 451.047C315.432 450.991 315.472 450.943 315.512 450.894V450.885C315.674 450.692 315.823 450.499 315.983 450.297C316.063 450.201 316.135 450.104 316.214 450.008V450C316.684 449.403 317.14 448.808 317.595 448.196C317.715 448.033 317.837 447.87 317.962 447.697C318.537 446.916 319.094 446.119 319.638 445.322V445.314C319.846 445.016 320.042 444.71 320.253 444.412L320.851 443.494C321.051 443.172 321.255 442.858 321.457 442.536L321.482 442.488C321.681 442.182 321.881 441.86 322.072 441.546C322.224 441.288 322.375 441.038 322.527 440.789C322.622 440.62 322.727 440.45 322.822 440.273C322.86 440.219 322.894 440.162 322.926 440.104L323.596 438.921C323.86 438.462 324.115 437.995 324.371 437.528C324.466 437.335 324.57 437.141 324.674 436.948C324.713 436.883 324.746 436.819 324.777 436.755C324.897 436.53 325.02 436.295 325.128 436.062C325.236 435.829 325.371 435.603 325.487 435.37C325.604 435.136 325.718 434.91 325.83 434.677C325.918 434.5 325.997 434.323 326.085 434.146C326.092 434.132 326.1 434.118 326.11 434.106C326.149 434.017 326.191 433.937 326.221 433.857C326.231 433.845 326.239 433.831 326.246 433.817C326.334 433.64 326.413 433.455 326.501 433.278C326.613 433.044 326.717 432.803 326.824 432.569C326.896 432.406 326.977 432.243 327.048 432.07C327.151 431.836 327.264 431.602 327.359 431.361C327.471 431.116 327.575 430.878 327.678 430.627C327.709 430.567 327.736 430.505 327.759 430.442C327.815 430.329 327.855 430.217 327.903 430.103C328.031 429.805 328.159 429.5 328.278 429.201C328.422 428.863 328.557 428.517 328.683 428.178C328.81 427.864 328.93 427.542 329.05 427.22L329.097 427.107C330.957 422.166 332.367 417.065 333.312 411.866V411.858C333.844 408.889 334.225 405.894 334.453 402.886C334.461 402.717 334.477 402.559 334.485 402.396C334.629 400.357 334.693 398.318 334.693 396.261C334.693 395.351 334.676 394.45 334.653 393.547C334.096 374.687 327.429 356.531 315.672 341.855C315.417 341.533 315.161 341.211 314.898 340.889C314.634 340.567 314.363 340.253 314.1 339.939C305.35 329.602 294.314 321.484 281.884 316.239C269.453 310.994 255.974 308.769 242.534 309.743C229.095 310.717 216.07 314.862 204.51 321.846C192.95 328.829 183.178 338.455 175.983 349.947C175.591 350.575 175.201 351.211 174.826 351.848C174.451 352.484 174.075 353.136 173.708 353.788C166.481 366.754 162.696 381.384 162.719 396.259Z" fill="#F2F2F2"/>
<path d="M214.875 348.665C214.812 348.654 214.749 348.645 214.687 348.633C214.951 348.468 215.199 348.279 215.43 348.069L214.875 348.665Z" fill="white"/>
<path d="M238.76 423.745H257.166L258.311 445.062L236.546 443.355L238.76 423.745Z" fill="#FFB9B9"/>
<path d="M203.224 470.066C204.05 470.521 204.886 470.957 205.721 471.371C206.019 471.516 206.326 471.661 206.624 471.816C206.873 471.933 207.123 472.061 207.372 472.175C207.453 472.213 207.516 472.243 207.583 472.282C207.794 472.379 207.997 472.476 208.208 472.572C208.438 472.679 208.668 472.785 208.889 472.892C209.149 473.008 209.399 473.124 209.657 473.231C210.618 473.667 211.587 474.083 212.558 474.481C216.034 475.918 219.586 477.16 223.199 478.201C223.361 478.249 223.535 478.298 223.708 478.346C225.254 478.781 226.81 479.178 228.375 479.538C231.113 480.177 233.875 480.7 236.664 481.107H236.683L237.682 481.252C237.711 481.252 237.739 481.262 237.778 481.262C237.778 481.272 237.778 481.272 237.788 481.262L238.892 481.407C238.918 481.415 238.946 481.418 238.973 481.417C239.319 481.466 239.674 481.504 240.02 481.543L241.144 481.659L242.008 481.746C242.033 481.755 242.059 481.758 242.085 481.756C242.345 481.776 242.603 481.804 242.863 481.824H242.902L243.574 481.882C246.253 482.095 248.942 482.192 251.67 482.192C254.618 482.192 257.547 482.075 260.438 481.824H260.467L262.32 481.649C262.482 481.63 262.637 481.62 262.8 481.601C262.829 481.601 262.867 481.591 262.896 481.591C262.944 481.582 262.993 481.582 263.05 481.572C263.076 481.573 263.102 481.57 263.127 481.562C263.338 481.542 263.55 481.514 263.774 481.494L264.494 481.407C264.737 481.378 264.974 481.339 265.214 481.31C265.272 481.3 265.32 481.3 265.376 481.29C265.549 481.271 265.722 481.242 265.894 481.209L266.144 481.179C266.317 481.15 266.481 481.131 266.654 481.098H266.663C271.933 480.333 277.135 479.151 282.222 477.562C282.491 477.475 282.759 477.399 283.03 477.31C281.79 471.476 279.237 466.009 275.569 461.329C271.9 456.649 267.214 452.882 261.873 450.32C263.194 449.05 264.107 447.41 264.495 445.612C264.744 444.452 264.764 443.255 264.553 442.087C264.342 440.92 263.905 439.807 263.266 438.811C262.02 436.88 260.064 435.528 257.83 435.052L243.6 432.048C241.308 431.598 238.933 432.078 236.991 433.384C235.049 434.69 233.696 436.717 233.227 439.024C233.082 439.731 233.018 440.452 233.035 441.174C219.32 450.389 209.457 459.932 203.224 470.066Z" fill="#1577BE"/>
<path d="M243.122 430.298C258.353 430.298 270.699 417.844 270.699 402.48C270.699 387.117 258.353 374.662 243.122 374.662C227.892 374.662 215.546 387.117 215.546 402.48C215.546 417.844 227.892 430.298 243.122 430.298Z" fill="#FFB9B9"/>
<path d="M225.934 426.462C222.994 424.436 219.991 420.542 217.986 417.624C215.329 413.788 213.501 409.431 212.62 404.836C211.74 400.242 211.826 395.512 212.873 390.953C213.207 389.13 214.028 387.434 215.247 386.047C216.545 384.75 218.667 384.136 220.253 385.053C219.82 383.884 219.63 382.638 219.693 381.392C219.756 380.147 220.072 378.927 220.62 377.809C221.735 375.577 223.349 373.637 225.336 372.144C229.135 369.192 233.656 367.334 238.418 366.765C243.18 366.196 248.006 366.939 252.384 368.914C254.106 369.719 251.277 363.5 253.08 364.102C254.871 364.801 256.862 364.766 258.627 364.003C260.325 363.142 265.944 368.258 265.293 366.459C266.58 367.048 267.698 367.956 268.543 369.099C269.388 370.242 269.933 371.581 270.127 372.993C270.32 374.406 270.157 375.844 269.651 377.175C269.145 378.507 268.313 379.687 267.233 380.607C265.81 381.819 264.033 382.516 262.475 383.543C259.745 385.481 257.813 388.36 257.043 391.637C256.273 394.913 256.719 398.361 258.297 401.328C256.657 400.266 254.858 399.477 252.969 398.993C252.021 398.76 251.032 398.759 250.084 398.989C249.136 399.219 248.256 399.674 247.517 400.316C246.9 401.029 246.434 401.861 246.147 402.762C245.86 403.663 245.759 404.614 245.85 405.556C245.911 407.443 246.357 409.304 246.407 411.191C246.553 416.731 249.495 427.264 245.237 430.209C241.872 432.536 229.948 429.23 225.934 426.462Z" fill="#2F2E41"/>
<path d="M641.276 206.24C641.276 208.197 641.212 210.155 641.076 212.094C640.932 214.413 640.685 216.715 640.348 219.002C639.222 226.701 637.068 234.212 633.947 241.329L633.468 242.389L633.226 242.921C633.145 243.098 633.058 243.275 632.978 243.445C632.867 243.678 632.762 243.904 632.655 244.129C632.519 244.411 632.383 244.693 632.24 244.975C632.224 245.007 632.209 245.048 632.184 245.088C632.065 245.332 631.953 245.562 631.825 245.804C631.802 245.857 631.775 245.908 631.744 245.958C631.609 246.232 631.465 246.513 631.322 246.787C631.16 247.077 631.01 247.375 630.851 247.665C630.468 248.382 630.069 249.09 629.662 249.799C629.542 250.008 629.419 250.217 629.295 250.427C629.183 250.62 629.071 250.813 628.952 251.007C628.871 251.135 628.79 251.272 628.709 251.401C628.581 251.619 628.454 251.828 628.318 252.046C628.023 252.52 627.719 252.996 627.424 253.471H627.415C627.28 253.688 627.136 253.905 626.993 254.115V254.123C626.57 254.767 626.131 255.411 625.692 256.047C625.689 256.047 625.687 256.048 625.686 256.05C625.684 256.051 625.684 256.053 625.684 256.055C625.333 256.571 624.966 257.07 624.606 257.569V257.577C624.363 257.891 624.135 258.213 623.895 258.527C623.703 258.785 623.504 259.051 623.304 259.309C623.264 259.365 623.216 259.413 623.176 259.472V259.48C623.12 259.553 623.065 259.617 623.009 259.69C622.163 260.785 621.29 261.856 620.391 262.902L620.247 263.071C620.199 263.128 620.143 263.184 620.095 263.248C620.014 263.337 619.943 263.425 619.864 263.514C619.784 263.603 619.712 263.691 619.632 263.78C614.944 269.107 609.629 273.836 603.804 277.863C603.03 278.402 602.24 278.923 601.45 279.433C601.25 279.562 601.05 279.691 600.851 279.811C600.796 279.851 600.732 279.893 600.676 279.932C600.564 279.996 600.46 280.061 600.352 280.133C600.245 280.206 600.145 280.262 600.033 280.327C599.61 280.593 599.179 280.85 598.748 281.108C598.645 281.173 598.532 281.237 598.425 281.301C598.317 281.366 598.209 281.422 598.101 281.487C598.101 281.495 598.101 281.495 598.093 281.495H598.085V281.503H598.077C597.542 281.817 597 282.123 596.449 282.42C596.154 282.584 595.85 282.747 595.546 282.903C594.86 283.282 594.165 283.644 593.471 283.991C593.223 284.111 592.968 284.235 592.721 284.361C592.513 284.457 592.306 284.562 592.098 284.659C592.034 284.69 591.978 284.715 591.922 284.747C591.747 284.829 591.58 284.911 591.403 284.992C591.212 285.081 591.02 285.169 590.837 285.258C590.622 285.354 590.415 285.451 590.199 285.539C589.401 285.902 588.594 286.248 587.788 286.578C584.899 287.772 581.947 288.805 578.944 289.67C578.809 289.71 578.665 289.751 578.522 289.791C577.237 290.153 575.943 290.483 574.641 290.781C572.366 291.312 570.07 291.747 567.752 292.086H567.736L566.906 292.206C566.882 292.206 566.858 292.215 566.825 292.215C566.825 292.223 566.825 292.223 566.817 292.215L565.899 292.335C565.879 292.341 565.857 292.344 565.835 292.343C565.548 292.383 565.252 292.416 564.965 292.448L564.032 292.544L563.314 292.617C563.293 292.624 563.271 292.627 563.25 292.625C563.034 292.641 562.819 292.665 562.603 292.681H562.571L562.013 292.729C559.786 292.906 557.551 292.987 555.284 292.987C552.833 292.987 550.399 292.891 547.996 292.681H547.972L546.432 292.536C546.296 292.52 546.168 292.511 546.032 292.496C546.008 292.496 545.977 292.488 545.952 292.488C545.912 292.48 545.871 292.48 545.824 292.471C545.802 292.472 545.781 292.47 545.76 292.463C545.584 292.447 545.409 292.423 545.225 292.407L544.627 292.334C544.427 292.31 544.228 292.278 544.029 292.253C543.981 292.245 543.941 292.245 543.893 292.237C543.749 292.22 543.606 292.197 543.462 292.172L543.254 292.148C543.11 292.123 542.974 292.108 542.831 292.083H542.823C538.443 291.448 534.12 290.466 529.893 289.147C529.67 289.074 529.446 289.01 529.223 288.937C529.215 288.937 529.206 288.929 529.198 288.929C529.134 288.905 529.062 288.889 528.999 288.865C528.4 288.671 527.809 288.47 527.22 288.261C526.406 287.987 525.603 287.69 524.794 287.384C524.578 287.295 524.363 287.215 524.147 287.126C523.708 286.957 523.277 286.78 522.846 286.602C522.112 286.305 521.378 285.99 520.651 285.668C519.973 285.362 519.302 285.057 518.63 284.734C518.614 284.726 518.59 284.726 518.574 284.71C518.422 284.637 518.271 284.565 518.127 284.492H518.119C514.443 282.713 510.898 280.67 507.511 278.381C506.425 277.648 505.355 276.891 504.301 276.11C503.456 275.474 502.625 274.829 501.795 274.17C497.7 270.884 493.909 267.229 490.469 263.252V263.243C490.221 262.969 489.99 262.688 489.751 262.406C489.711 262.366 489.679 262.324 489.647 262.293C489.495 262.108 489.352 261.931 489.2 261.754V261.746C489 261.513 488.801 261.271 488.609 261.029C488.561 260.973 488.521 260.925 488.481 260.876V260.867C488.32 260.674 488.17 260.481 488.011 260.279C487.93 260.183 487.859 260.086 487.779 259.99V259.982C487.309 259.386 486.854 258.79 486.398 258.178C486.279 258.015 486.156 257.852 486.031 257.679C485.457 256.898 484.899 256.101 484.355 255.304V255.296C484.147 254.998 483.951 254.692 483.741 254.394L483.142 253.476C482.943 253.154 482.738 252.84 482.536 252.518L482.512 252.47C482.312 252.164 482.112 251.842 481.921 251.528C481.769 251.27 481.618 251.02 481.466 250.771C481.37 250.602 481.266 250.432 481.17 250.255C481.133 250.201 481.098 250.145 481.067 250.087L480.397 248.903C480.133 248.444 479.878 247.977 479.622 247.51C479.527 247.317 479.422 247.123 479.319 246.93C479.279 246.866 479.247 246.801 479.215 246.737C479.096 246.512 478.973 246.278 478.864 246.044C478.756 245.811 478.622 245.585 478.505 245.352C478.389 245.119 478.274 244.893 478.163 244.659C478.074 244.482 477.995 244.305 477.907 244.128C477.901 244.113 477.893 244.1 477.883 244.088C477.843 243.999 477.802 243.919 477.771 243.838C477.761 243.826 477.753 243.812 477.747 243.798C477.659 243.621 477.58 243.436 477.491 243.259C477.38 243.026 477.276 242.784 477.168 242.55C477.096 242.387 477.016 242.224 476.945 242.051C476.841 241.818 476.729 241.584 476.634 241.342C476.522 241.097 476.418 240.859 476.314 240.608C476.284 240.548 476.257 240.486 476.233 240.423C476.178 240.31 476.138 240.198 476.089 240.084C475.962 239.787 475.834 239.481 475.714 239.182C475.57 238.844 475.435 238.498 475.31 238.16C475.182 237.846 475.063 237.523 474.943 237.201L474.895 237.089C473.036 232.147 471.625 227.046 470.681 221.847V221.839C470.149 218.87 469.767 215.875 469.539 212.867C469.531 212.698 469.515 212.541 469.508 212.378C469.364 210.338 469.3 208.299 469.3 206.242C469.3 205.332 469.316 204.431 469.34 203.529C469.897 184.669 476.564 166.513 488.32 151.837C488.576 151.515 488.831 151.193 489.095 150.871C489.359 150.549 489.629 150.235 489.893 149.921C498.643 139.584 509.678 131.466 522.109 126.221C534.54 120.976 548.018 118.751 561.458 119.725C574.898 120.699 587.923 124.844 599.483 131.828C611.043 138.812 620.814 148.437 628.01 159.929C628.401 160.557 628.792 161.194 629.168 161.83C629.543 162.466 629.918 163.118 630.285 163.77C637.515 176.736 641.303 191.366 641.281 206.243L641.276 206.24Z" fill="#F2F2F2"/>
<path d="M589.121 158.646C589.184 158.634 589.247 158.625 589.309 158.614C589.045 158.449 588.796 158.26 588.566 158.049L589.121 158.646Z" fill="white"/>
<path d="M540.942 241.55L562.744 239.134L567.933 258.4L547.285 263.289L540.942 241.55Z" fill="#ED9DA0"/>
<path d="M546.383 247.417C560.647 247.417 572.211 235.492 572.211 220.783C572.211 206.073 560.647 194.148 546.383 194.148C532.119 194.148 520.556 206.073 520.556 220.783C520.556 235.492 532.119 247.417 546.383 247.417Z" fill="#ED9DA0"/>
<path d="M601.5 281.994C600.752 282.407 599.995 282.801 599.236 283.178C598.967 283.31 598.688 283.442 598.418 283.582C598.192 283.687 597.966 283.801 597.74 283.908C597.671 283.943 597.61 283.969 597.548 284.004C597.357 284.093 597.174 284.18 596.982 284.268C596.774 284.364 596.565 284.461 596.365 284.557C596.129 284.663 595.904 284.768 595.669 284.864C594.799 285.259 593.92 285.637 593.042 285.996C589.893 287.298 586.675 288.423 583.403 289.366C583.255 289.41 583.098 289.454 582.942 289.497C581.54 289.892 580.131 290.251 578.714 290.576C576.234 291.155 573.732 291.629 571.207 291.998H571.19L570.285 292.129C570.259 292.129 570.232 292.138 570.198 292.138C570.198 292.147 570.198 292.147 570.189 292.138L569.188 292.269C569.166 292.276 569.142 292.279 569.119 292.278C568.806 292.322 568.484 292.36 568.171 292.392L567.153 292.498L566.37 292.579C566.348 292.587 566.324 292.59 566.3 292.588C566.065 292.605 565.831 292.632 565.596 292.649H565.561L564.952 292.702C562.527 292.896 560.09 292.983 557.619 292.983C554.951 292.983 552.295 292.878 549.677 292.649H549.655L547.977 292.491C547.829 292.473 547.69 292.465 547.542 292.447C547.516 292.447 547.481 292.438 547.455 292.438C547.411 292.429 547.367 292.429 547.316 292.42C547.292 292.421 547.269 292.418 547.246 292.411C547.054 292.394 546.864 292.367 546.663 292.35L546.011 292.268C545.793 292.242 545.576 292.207 545.358 292.18C545.305 292.171 545.263 292.171 545.21 292.163C545.053 292.145 544.897 292.119 544.74 292.093L544.514 292.067C544.357 292.041 544.209 292.023 544.053 291.997H544.044C539.271 291.304 534.559 290.233 529.952 288.794C529.709 288.712 529.467 288.645 529.224 288.565C530.347 283.282 532.659 278.329 535.982 274.09C539.305 269.851 543.549 266.439 548.387 264.118C547.19 262.968 546.363 261.482 546.012 259.853C545.786 258.803 545.768 257.718 545.959 256.661C546.15 255.603 546.547 254.595 547.126 253.692C548.254 251.944 550.025 250.72 552.049 250.288L564.937 247.568C567.012 247.16 569.164 247.594 570.923 248.777C572.682 249.96 573.908 251.796 574.332 253.886C574.464 254.526 574.522 255.18 574.506 255.833C586.92 264.172 595.854 272.815 601.5 281.994Z" fill="#1577BE"/>
<path d="M615.495 209.231C611.105 204.066 609.018 197.214 605.508 191.35C601.998 185.485 595.891 180.236 589.439 181.601C584.992 182.543 581.554 186.502 579.817 190.915C578.08 195.328 577.751 200.197 577.446 204.965C577.554 195.165 571.153 185.665 562.337 182.535C553.52 179.406 542.97 182.897 537.433 190.773C535.016 188.513 531.86 187.226 528.565 187.156C525.269 187.086 522.063 188.239 519.553 190.395C514.598 194.863 513.501 203.363 517.145 209.064C520.789 214.766 528.682 216.886 534.473 213.726L536.521 215.625C535.368 219.691 537.603 224.495 541.36 226.025C544.406 227.267 548.707 227.061 549.85 230.286C550.646 232.539 549.157 234.944 547.573 236.676C545.99 238.408 544.11 240.195 543.919 242.592C543.632 246.207 547.335 248.74 550.703 249.503C558.821 251.342 567.829 247.549 572.508 240.322C572.598 240.183 572.697 240.043 572.803 239.903C575.428 236.517 577.341 232.626 578.426 228.468C579.51 224.31 579.743 219.973 579.109 215.722C578.846 214.051 579.109 212.809 580.253 212.413C585.186 210.701 599.012 214.289 603.199 217.536C607.385 220.782 610.734 225.071 614.761 228.525C618.787 231.978 623.927 234.642 629.046 233.701C633.144 232.948 636.631 229.949 638.976 226.325C641.321 222.701 642.671 218.484 643.88 214.289C634.811 219.571 622.406 217.359 615.495 209.231Z" fill="#2F2E41"/>
<path d="M84.4976 152.293C84.4976 154.251 84.5615 156.208 84.6974 158.147C84.8413 160.466 85.0887 162.769 85.4251 165.056C86.5517 172.755 88.7049 180.265 91.8263 187.383L92.305 188.443L92.5476 188.975C92.6284 189.152 92.7149 189.329 92.795 189.498C92.9066 189.732 93.0109 189.958 93.1184 190.183C93.2542 190.465 93.3901 190.746 93.5332 191.028C93.5494 191.06 93.5647 191.101 93.589 191.141C93.7086 191.386 93.8202 191.616 93.948 191.858C93.9718 191.911 93.9988 191.962 94.0288 192.011C94.1647 192.285 94.3086 192.567 94.4517 192.841C94.6134 193.13 94.763 193.429 94.9223 193.718C95.3055 194.435 95.7042 195.143 96.1117 195.852C96.2313 196.062 96.3542 196.271 96.4787 196.48C96.5903 196.673 96.7019 196.867 96.8216 197.06C96.9024 197.189 96.9833 197.326 97.0641 197.455C97.1919 197.673 97.3196 197.881 97.4555 198.099C97.7506 198.574 98.0538 199.049 98.3497 199.524H98.3578C98.4937 199.742 98.6368 199.959 98.7807 200.168V200.177C99.2036 200.821 99.6426 201.464 100.082 202.101C100.083 202.1 100.085 202.1 100.087 202.101C100.088 202.102 100.088 202.104 100.087 202.106C100.438 202.622 100.805 203.121 101.165 203.62V203.628C101.408 203.942 101.636 204.264 101.876 204.579C102.067 204.836 102.267 205.102 102.466 205.36C102.506 205.416 102.554 205.464 102.594 205.523V205.531C102.65 205.604 102.705 205.668 102.761 205.741C103.607 206.836 104.48 207.907 105.379 208.954L105.523 209.122C105.571 209.179 105.627 209.235 105.675 209.299C105.756 209.388 105.827 209.476 105.906 209.565C105.986 209.654 106.058 209.742 106.138 209.831C110.826 215.158 116.141 219.887 121.966 223.914C122.74 224.453 123.53 224.974 124.32 225.484C124.52 225.613 124.72 225.742 124.919 225.862C124.975 225.902 125.038 225.944 125.094 225.983C125.206 226.048 125.31 226.112 125.418 226.185C125.525 226.257 125.625 226.313 125.737 226.378C126.16 226.644 126.591 226.901 127.022 227.159C127.125 227.224 127.238 227.288 127.345 227.353C127.453 227.417 127.561 227.473 127.669 227.538C127.669 227.546 127.669 227.546 127.677 227.546H127.685V227.554H127.693C128.228 227.868 128.77 228.174 129.321 228.472C129.616 228.635 129.92 228.798 130.224 228.954C130.91 229.333 131.605 229.695 132.299 230.042C132.547 230.162 132.802 230.286 133.05 230.412C133.257 230.508 133.464 230.613 133.672 230.71C133.736 230.741 133.792 230.766 133.848 230.799C134.023 230.88 134.19 230.962 134.367 231.043C134.558 231.132 134.75 231.22 134.933 231.309C135.149 231.405 135.355 231.502 135.571 231.591C136.369 231.953 137.176 232.3 137.982 232.63C140.871 233.824 143.823 234.857 146.826 235.722C146.961 235.762 147.105 235.803 147.248 235.842C148.534 236.205 149.827 236.535 151.13 236.833C153.404 237.364 155.7 237.799 158.018 238.138H158.034L158.864 238.258C158.888 238.258 158.912 238.266 158.945 238.266C158.945 238.275 158.945 238.275 158.953 238.266L159.871 238.387C159.891 238.393 159.913 238.396 159.935 238.395C160.222 238.435 160.518 238.468 160.805 238.5L161.739 238.596L162.457 238.669C162.477 238.676 162.499 238.679 162.52 238.677C162.736 238.693 162.951 238.717 163.167 238.733H163.199L163.757 238.781C165.984 238.958 168.219 239.039 170.486 239.039C172.937 239.039 175.371 238.943 177.774 238.733H177.798L179.338 238.588C179.474 238.572 179.602 238.563 179.738 238.548C179.762 238.548 179.793 238.54 179.819 238.54C179.858 238.532 179.899 238.532 179.946 238.523C179.968 238.524 179.989 238.521 180.01 238.515C180.186 238.499 180.361 238.475 180.545 238.459L181.143 238.386C181.343 238.362 181.542 238.33 181.741 238.305C181.789 238.297 181.829 238.297 181.877 238.288C182.021 238.272 182.164 238.249 182.308 238.224L182.516 238.2C182.66 238.175 182.795 238.16 182.939 238.135H182.947C187.327 237.5 191.65 236.518 195.877 235.199C196.1 235.126 196.324 235.062 196.547 234.989C196.556 234.989 196.564 234.981 196.572 234.981C196.636 234.957 196.708 234.941 196.771 234.917C197.37 234.723 197.961 234.522 198.55 234.313C199.364 234.039 200.167 233.742 200.976 233.435C201.192 233.347 201.407 233.267 201.623 233.178C202.062 233.009 202.493 232.832 202.924 232.654C203.658 232.356 204.392 232.042 205.119 231.72C205.797 231.414 206.468 231.108 207.14 230.786C207.156 230.778 207.18 230.778 207.196 230.762C207.348 230.689 207.499 230.617 207.643 230.544H207.651C211.327 228.764 214.872 226.722 218.259 224.433C219.345 223.7 220.415 222.943 221.468 222.162C222.314 221.526 223.144 220.881 223.974 220.221C228.07 216.935 231.861 213.281 235.301 209.303V209.295C235.548 209.021 235.779 208.74 236.018 208.458C236.058 208.418 236.09 208.376 236.122 208.345C236.274 208.16 236.417 207.983 236.569 207.806V207.798C236.769 207.565 236.969 207.323 237.159 207.081C237.207 207.025 237.247 206.976 237.287 206.928V206.919C237.449 206.726 237.598 206.533 237.758 206.331C237.839 206.235 237.91 206.138 237.989 206.042V206.034C238.46 205.438 238.915 204.842 239.37 204.23C239.49 204.067 239.613 203.904 239.737 203.731C240.312 202.95 240.869 202.153 241.413 201.356V201.348C241.621 201.05 241.817 200.744 242.028 200.446L242.626 199.528C242.826 199.206 243.03 198.892 243.232 198.57L243.257 198.522C243.456 198.216 243.656 197.894 243.847 197.58C243.999 197.322 244.15 197.072 244.302 196.823C244.398 196.654 244.502 196.484 244.597 196.307C244.635 196.253 244.669 196.196 244.701 196.138L245.371 194.955C245.635 194.496 245.89 194.029 246.146 193.562C246.241 193.369 246.345 193.175 246.449 192.982C246.488 192.917 246.521 192.853 246.552 192.789C246.672 192.563 246.795 192.329 246.903 192.096C247.012 191.863 247.146 191.637 247.262 191.404C247.379 191.17 247.493 190.944 247.605 190.711C247.693 190.534 247.772 190.357 247.861 190.179C247.867 190.165 247.875 190.152 247.885 190.139C247.924 190.051 247.966 189.971 247.996 189.89C248.006 189.878 248.014 189.864 248.021 189.85C248.109 189.673 248.188 189.488 248.276 189.311C248.388 189.077 248.492 188.836 248.6 188.602C248.672 188.439 248.752 188.276 248.823 188.103C248.926 187.87 249.039 187.635 249.134 187.394C249.246 187.149 249.35 186.911 249.453 186.66C249.484 186.6 249.511 186.538 249.534 186.475C249.59 186.362 249.63 186.25 249.678 186.136C249.806 185.839 249.934 185.533 250.053 185.234C250.197 184.896 250.333 184.55 250.458 184.211C250.585 183.897 250.705 183.575 250.825 183.253L250.872 183.141C252.732 178.199 254.143 173.098 255.087 167.899V167.891C255.619 164.922 256 161.927 256.228 158.919C256.236 158.75 256.252 158.593 256.261 158.429C256.404 156.39 256.468 154.351 256.468 152.294C256.468 151.384 256.452 150.483 256.429 149.581C255.871 130.721 249.205 112.565 237.448 97.8893C237.193 97.5672 236.937 97.245 236.673 96.9228C236.41 96.6007 236.139 96.2866 235.875 95.9726C227.125 85.636 216.09 77.518 203.66 72.273C191.229 67.028 177.75 64.8027 164.31 65.7766C150.871 66.7505 137.846 70.8963 126.286 77.8799C114.726 84.8634 104.954 94.4892 97.7587 105.981C97.3674 106.609 96.9768 107.245 96.6017 107.882C96.2265 108.518 95.8513 109.169 95.4842 109.822C88.2542 122.788 84.4664 137.418 84.4879 152.294L84.4976 152.293Z" fill="#F2F2F2"/>
<path d="M136.653 104.699C136.59 104.688 136.527 104.679 136.465 104.667C136.729 104.502 136.978 104.313 137.208 104.103L136.653 104.699Z" fill="white"/>
<path d="M165.958 175.527H186.01L185.157 201.725L162.461 199.933L165.958 175.527Z" fill="#9E616A"/>
<path d="M130.233 228.24C131.016 228.675 131.807 229.092 132.598 229.491C132.881 229.63 133.172 229.769 133.454 229.918C133.691 230.029 133.927 230.149 134.164 230.26C134.236 230.297 134.3 230.325 134.363 230.362C134.564 230.455 134.755 230.547 134.954 230.64C135.173 230.742 135.391 230.844 135.601 230.946C135.844 231.057 136.086 231.169 136.329 231.272C137.239 231.689 138.158 232.088 139.078 232.467C142.37 233.842 145.735 235.029 149.157 236.025C149.312 236.072 149.476 236.118 149.643 236.164C151.107 236.581 152.581 236.961 154.064 237.306C156.657 237.917 159.274 238.418 161.915 238.806H161.933L162.879 238.945C162.906 238.945 162.934 238.954 162.97 238.954C162.97 238.963 162.97 238.963 162.979 238.954L164.025 239.093C164.049 239.1 164.073 239.103 164.098 239.102C164.425 239.148 164.762 239.183 165.089 239.222L166.153 239.333L166.972 239.415C166.996 239.423 167.02 239.426 167.045 239.424C167.288 239.443 167.537 239.47 167.782 239.489H167.818L168.455 239.545C170.993 239.748 173.54 239.841 176.124 239.841C178.917 239.841 181.692 239.73 184.43 239.488H184.457L186.213 239.325C186.367 239.306 186.513 239.297 186.668 239.279C186.695 239.279 186.732 239.27 186.759 239.27C186.804 239.261 186.851 239.261 186.905 239.251C186.929 239.252 186.954 239.249 186.977 239.242C187.178 239.223 187.382 239.195 187.587 239.177L188.27 239.096C188.497 239.068 188.725 239.031 188.952 239.003C189.007 238.994 189.052 238.994 189.106 238.984C189.268 238.965 189.43 238.938 189.598 238.91L189.835 238.882C189.997 238.854 190.153 238.836 190.32 238.808H190.329C195.321 238.073 200.247 236.94 205.061 235.42C205.315 235.338 205.57 235.262 205.825 235.175C204.664 229.613 202.253 224.394 198.779 219.919C195.304 215.444 190.858 211.832 185.783 209.362C187.037 208.144 187.902 206.576 188.267 204.859C188.744 202.621 188.326 200.284 187.103 198.355C186.522 197.444 185.767 196.657 184.884 196.04C184 195.423 183.005 194.988 181.954 194.761L168.472 191.889C166.293 191.465 164.036 191.928 162.195 193.179C160.353 194.429 159.078 196.364 158.647 198.56C158.51 199.236 158.449 199.927 158.466 200.617C145.48 209.419 136.137 218.549 130.233 228.24Z" fill="#1577BE"/>
<path d="M171.948 190.424C187.85 190.424 200.741 177.42 200.741 161.38C200.741 145.339 187.85 132.335 171.948 132.335C156.046 132.335 143.156 145.339 143.156 161.38C143.156 177.42 156.046 190.424 171.948 190.424Z" fill="#9E616A"/>
<path d="M167.858 188.872C160.649 190.836 152.702 188.225 147.078 183.272C141.454 178.319 137.934 171.302 135.906 164.052C134.421 158.743 133.717 152.85 136.061 147.866C138.404 142.882 144.712 139.52 149.576 142.037C146.575 138.509 148.074 132.674 151.58 129.657C155.086 126.64 159.899 125.774 164.484 125.301C171.137 124.614 178.01 124.538 184.342 126.712C190.673 128.886 196.425 133.64 198.41 140.088C200.434 141.039 202.713 141.286 204.891 140.79C207.068 140.294 209.021 139.083 210.444 137.348C210.812 139.341 210.517 141.401 209.607 143.208C208.696 145.016 207.22 146.47 205.408 147.346L215.11 144.173C216.778 147.736 213.855 152.144 210.117 153.285C206.378 154.426 202.343 153.179 198.797 151.531C195.251 149.882 191.812 147.799 187.958 147.157C184.105 146.514 179.578 147.763 177.796 151.268C176.862 153.104 176.814 155.255 176.272 157.244C175.731 159.234 174.358 161.297 172.318 161.46C171.03 161.563 169.767 160.871 168.483 161.013C167.695 161.169 166.969 161.555 166.394 162.121C165.82 162.688 165.422 163.411 165.248 164.202C164.929 165.79 164.925 167.426 165.237 169.015L167.702 188.019L167.858 188.872Z" fill="#2F2E41"/>
<path d="M8.49705 260.591C9.62688 260.397 10.7855 260.461 11.8875 260.778C12.9895 261.096 14.0068 261.659 14.8644 262.426L14.9113 262.469L14.955 262.43C15.7731 261.705 16.7352 261.164 17.777 260.844C18.8188 260.523 19.9164 260.431 20.9964 260.572L21.3102 260.619C22.6714 260.856 23.9437 261.46 24.9924 262.366C26.0411 263.273 26.8271 264.45 27.2673 265.77C27.7074 267.091 27.7852 268.507 27.4925 269.869C27.1997 271.231 26.5473 272.487 25.6044 273.506L25.3748 273.744L25.3133 273.797L15.7999 283.302C15.5804 283.521 15.2896 283.653 14.9814 283.672C14.6732 283.691 14.3685 283.597 14.1238 283.407L14.0041 283.302L4.44298 273.745C3.42956 272.75 2.7088 271.492 2.36055 270.11C2.0123 268.728 2.05014 267.275 2.46988 265.913C2.88963 264.551 3.6749 263.333 4.7387 262.394C5.8025 261.455 7.10332 260.831 8.49705 260.591Z" fill="#1577BE"/>
<path d="M442.461 178.162C441.484 178.163 440.543 177.786 439.832 177.109C439.121 176.432 438.693 175.506 438.637 174.521L438.627 174.293V162.106L450.69 170.219L450.836 170.3C451.01 170.388 451.203 170.435 451.399 170.435C451.594 170.435 451.786 170.388 451.961 170.3L452.107 170.219L464.17 162.106V174.293C464.17 175.279 463.797 176.228 463.126 176.945C462.455 177.663 461.537 178.093 460.561 178.15L460.335 178.162H442.461ZM439.196 159.391C439.516 158.866 439.956 158.425 440.479 158.107C441.003 157.789 441.595 157.602 442.205 157.562L442.461 157.551H460.334C460.988 157.551 461.632 157.72 462.204 158.042C462.775 158.365 463.255 158.829 463.598 159.391L451.395 167.593L439.196 159.391Z" fill="#1577BE"/>
<path d="M136.2 312.316C137.555 312.316 138.855 312.859 139.813 313.825C140.771 314.792 141.309 316.102 141.309 317.469V327.775C141.309 329.142 140.771 330.453 139.813 331.419C138.855 332.385 137.555 332.928 136.2 332.928H130.167L124.086 336.609C123.903 336.72 123.695 336.783 123.481 336.792C123.268 336.801 123.056 336.756 122.864 336.661C122.672 336.565 122.507 336.423 122.384 336.247C122.261 336.07 122.184 335.866 122.16 335.652L122.153 335.505V332.928H120.875C119.565 332.928 118.305 332.42 117.355 331.51C116.406 330.599 115.839 329.355 115.773 328.035L115.767 327.775V317.469C115.767 316.102 116.305 314.792 117.263 313.825C118.221 312.859 119.52 312.316 120.875 312.316H136.2ZM131.092 323.91H123.429C123.091 323.91 122.766 324.046 122.526 324.287C122.287 324.529 122.152 324.857 122.152 325.198C122.152 325.54 122.287 325.868 122.526 326.109C122.766 326.351 123.091 326.487 123.429 326.487H131.092C131.431 326.487 131.756 326.351 131.995 326.109C132.235 325.868 132.369 325.54 132.369 325.198C132.369 324.857 132.235 324.529 131.995 324.287C131.756 324.046 131.431 323.91 131.092 323.91ZM133.646 318.759H123.429C123.091 318.759 122.766 318.895 122.526 319.137C122.287 319.378 122.152 319.706 122.152 320.048C122.152 320.389 122.287 320.717 122.526 320.959C122.766 321.2 123.091 321.336 123.429 321.336H133.646C133.985 321.336 134.31 321.2 134.549 320.959C134.789 320.717 134.923 320.389 134.923 320.048C134.923 319.706 134.789 319.378 134.549 319.137C134.31 318.895 133.985 318.759 133.646 318.759Z" fill="#1577BE"/>
<path d="M123.387 272.078C127.595 272.078 131.006 268.637 131.006 264.392C131.006 260.147 127.595 256.705 123.387 256.705C119.178 256.705 115.767 260.147 115.767 264.392C115.767 268.637 119.178 272.078 123.387 272.078Z" fill="#E6E6E6"/>
</g>
<defs>
<clipPath id="clip0_28_377">
<rect width="646" height="483" fill="white"/>
</clipPath>
</defs>
</svg>
